<?xml version="1.0" encoding="utf-8"?>
<!-- Generator: Adobe Illustrator 24.1.2, SVG Export Plug-In . SVG Version: 6.00 Build 0)  -->
<svg version="1.1" id="Layer_1" xmlns="http://www.w3.org/2000/svg" xmlns:xlink="http://www.w3.org/1999/xlink" x="0px" y="0px"
	 width="612px" height="792px" viewBox="0 0 612 792" style="enable-background:new 0 0 612 792;" xml:space="preserve">
<style type="text/css">
	.st0{fill:#FFFFFF;}
</style>
<rect x="-90" class="st0" width="792" height="792"/>
<g>
	<g>
		<path class="st0" d="M64.04,769.23c0-248.57,0-497.14,0-745.71c160.97,0,321.95,0,482.92,0c0,248.57,0,497.14,0,745.71
			C385.99,769.23,225.01,769.23,64.04,769.23z M113.45,744.33c0.25-0.77,0.49-1.48,0.71-2.19c3.71-12.05,7.28-24.16,11.16-36.16
			c6.98-21.59,14.73-42.9,23.98-63.64c12.91-28.96,32.59-52.27,58.48-70.42c0.71-0.5,1.46-0.94,2.51-1.6
			c1.8,18.78,3.57,37.2,5.36,55.84c0.96-0.27,1.68-0.44,2.38-0.67c3.46-1.17,6.91-2.37,10.38-3.51c0.94-0.31,1.93-0.48,3.12-0.77
			c0.08,10.29,0.15,20.25,0.23,30.54c6.3-2.69,12.14-5.53,18.28-8.15c1.83,10.41,3.6,20.5,5.39,30.69c1.35,0,2.5,0.03,3.66-0.01
			c2.2-0.08,4.41-0.2,6.61-0.3c6.47-0.32,12.94-0.72,19.42-0.94c8.13-0.27,16.27-0.72,24.4-0.51c13.58,0.35,27.14,1.16,40.71,1.77
			c0.87,0.04,1.75,0.01,2.79,0.01c1.81-10.28,3.58-20.41,5.4-30.77c6.24,2.81,12.17,5.48,18.43,8.3c0-10.48,0-20.57,0-30.89
			c5.39,1.78,10.52,3.47,15.92,5.26c1.81-18.71,3.58-37.13,5.4-55.93c1.24,0.8,2.17,1.36,3.04,1.98
			c23.63,16.84,42.39,37.87,55.11,64.11c7.02,14.48,12.76,29.48,18.24,44.58c7.35,20.22,13.73,40.76,19.78,61.4
			c0.23,0.78,0.5,1.54,0.79,2.43c4.93-0.13,9.73-0.26,14.58-0.39c0.06-0.6,0.12-1.01,0.13-1.41c0.1-4.69,0.21-9.38,0.27-14.07
			c0.19-16.08-0.13-32.16-0.92-48.22c-0.55-11.16-1.26-22.32-2.07-33.46c-0.53-7.29-1.21-14.58-2.12-21.83
			c-1.18-9.51-2.59-18.99-4.02-28.47c-1.91-12.69-4.42-25.27-8.12-37.57c-8.52-28.27-18.32-56.09-29.35-83.47
			c-7.39-18.35-15.22-36.53-22.69-54.85c-7.47-18.32-14.66-36.76-22.14-55.07c-5.14-12.57-10.59-25.01-15.86-37.53
			c-2.29-5.44-3.65-11.11-4.13-17.01c-0.42-5.15-0.89-10.31-1.64-15.43c-2.6-17.86-6.9-35.3-12.97-52.3
			c-8.6-24.12-19.74-47.02-32.88-68.97c-10.04-16.78-20.86-33-33.94-47.61c-0.87-0.97-1.34-2.07-1.56-3.31
			c-1.55-9.11-3.1-18.21-4.66-27.32c-1.94-11.35-3.89-22.7-5.85-34.04c-0.23-1.3-0.53-2.59-0.8-3.89c-0.14,0-0.28,0-0.42,0
			c-0.29,1.68-0.58,3.36-0.87,5.04c-3.43,19.91-6.86,39.81-10.27,59.72c-0.29,1.68-0.93,3.1-2.06,4.41
			c-3.19,3.72-6.4,7.42-9.38,11.3c-20.61,26.85-37.07,56.1-50.26,87.24c-11.74,27.71-19.31,56.43-21.53,86.51
			c-0.33,4.42-1.25,8.73-2.91,12.87c-1.41,3.52-2.82,7.04-4.28,10.54c-7.6,18.27-15.29,36.5-22.82,54.8
			c-6.43,15.62-12.45,31.41-19.05,46.95c-13.67,32.19-26.47,64.69-37.56,97.86c-6.48,19.38-12,38.99-15.37,59.18
			c-2.87,17.22-5.04,34.53-6.28,51.94c-0.99,13.97-1.83,27.95-2.42,41.94c-0.74,17.45-0.62,34.91-0.35,52.37
			c0.02,1.02,0.15,2.03,0.23,3.13C103.77,744.33,108.56,744.33,113.45,744.33z"/>
		<path d="M113.45,744.33c-4.89,0-9.69,0-14.64,0c-0.08-1.1-0.22-2.11-0.23-3.13c-0.28-17.46-0.4-34.92,0.35-52.37
			c0.6-13.99,1.43-27.97,2.42-41.94c1.24-17.41,3.4-34.72,6.28-51.94c3.37-20.19,8.89-39.8,15.37-59.18
			c11.09-33.17,23.9-65.68,37.56-97.86c6.6-15.54,12.62-31.33,19.05-46.95c7.53-18.3,15.21-36.53,22.82-54.8
			c1.46-3.5,2.87-7.02,4.28-10.54c1.66-4.13,2.58-8.44,2.91-12.87c2.22-30.07,9.78-58.8,21.53-86.51
			c13.2-31.14,29.65-60.39,50.26-87.24c2.98-3.88,6.2-7.58,9.38-11.3c1.12-1.31,1.77-2.73,2.06-4.41
			c3.41-19.91,6.84-39.81,10.27-59.72c0.29-1.68,0.58-3.36,0.87-5.04c0.14,0,0.28,0,0.42,0c0.27,1.3,0.58,2.59,0.8,3.89
			c1.96,11.35,3.91,22.69,5.85,34.04c1.56,9.11,3.11,18.21,4.66,27.32c0.21,1.25,0.69,2.35,1.56,3.31
			c13.08,14.61,23.9,30.83,33.94,47.61c13.14,21.95,24.28,44.86,32.88,68.97c6.06,17,10.37,34.45,12.97,52.3
			c0.74,5.11,1.21,10.27,1.64,15.43c0.49,5.9,1.85,11.57,4.13,17.01c5.27,12.52,10.72,24.96,15.86,37.53
			c7.48,18.32,14.67,36.75,22.14,55.07c7.47,18.32,15.3,36.5,22.69,54.85c11.02,27.38,20.83,55.21,29.35,83.47
			c3.71,12.3,6.21,24.88,8.12,37.57c1.43,9.48,2.83,18.96,4.02,28.47c0.9,7.25,1.59,14.54,2.12,21.83
			c0.81,11.15,1.52,22.3,2.07,33.46c0.79,16.06,1.11,32.14,0.92,48.22c-0.06,4.69-0.17,9.38-0.27,14.07
			c-0.01,0.4-0.07,0.81-0.13,1.41c-4.85,0.13-9.64,0.26-14.58,0.39c-0.29-0.89-0.56-1.65-0.79-2.43
			c-6.05-20.64-12.44-41.18-19.78-61.4c-5.49-15.1-11.22-30.1-18.24-44.58c-12.73-26.23-31.48-47.27-55.11-64.11
			c-0.88-0.62-1.8-1.18-3.04-1.98c-1.81,18.8-3.59,37.22-5.4,55.93c-5.4-1.78-10.53-3.48-15.92-5.26c0,10.32,0,20.41,0,30.89
			c-6.26-2.82-12.19-5.49-18.43-8.3c-1.82,10.36-3.6,20.49-5.4,30.77c-1.04,0-1.92,0.03-2.79-0.01
			c-13.57-0.61-27.14-1.42-40.71-1.77c-8.12-0.21-16.27,0.24-24.4,0.51c-6.48,0.22-12.95,0.62-19.42,0.94
			c-2.2,0.11-4.41,0.23-6.61,0.3c-1.15,0.04-2.31,0.01-3.66,0.01c-1.79-10.19-3.56-20.28-5.39-30.69
			c-6.15,2.62-11.99,5.46-18.28,8.15c-0.08-10.29-0.15-20.25-0.23-30.54c-1.19,0.29-2.18,0.46-3.12,0.77
			c-3.47,1.15-6.92,2.35-10.38,3.51c-0.7,0.24-1.42,0.4-2.38,0.67c-1.79-18.64-3.56-37.05-5.36-55.84c-1.05,0.67-1.8,1.1-2.51,1.6
			c-25.89,18.15-45.58,41.46-58.48,70.42c-9.24,20.74-16.99,42.05-23.98,63.64c-3.88,12-7.45,24.1-11.16,36.16
			C113.94,742.85,113.7,743.56,113.45,744.33z M255.1,203.86c-0.14-0.05-0.28-0.1-0.42-0.15c-0.26,0.38-0.58,0.72-0.77,1.13
			c-3.01,6.58-6.35,13.03-8.93,19.78c-6.39,16.7-10.97,33.95-14.59,51.45c-2.75,13.24-4.25,26.67-5.69,40.1
			c-1.27,11.79-2.31,23.6-3.26,35.41c-0.97,12.03-1.74,24.07-2.53,36.11c-0.61,9.29-1.18,18.58-1.62,27.88
			c-0.51,10.88-1.05,21.77-1.24,32.67c-0.46,26.63-0.38,53.26,0.72,79.87c0.32,7.85,0.78,15.7,1.19,23.55
			c0.18,3.51,0.31,7.03,0.58,10.53c0.58,7.63,1.22,15.25,1.87,22.88c0.57,6.66,1.18,13.32,1.82,19.98c0.21,2.17,0.54,4.33,0.82,6.49
			c2.46-0.34,44.42-13.8,45.74-14.66c-0.03-0.24-0.05-0.52-0.1-0.78c-1.46-7.16-3-14.3-4.35-21.47c-2.23-11.78-4.4-23.57-6.48-35.38
			c-2.2-12.49-4.32-24.99-6.38-37.5c-1.54-9.31-2.97-18.64-4.37-27.98c-1.34-8.93-2.63-17.86-3.84-26.81
			c-1.22-9.01-2.25-18.05-3.49-27.06c-1.89-13.67-3.02-27.41-3.47-41.2c-0.55-16.62-0.5-33.25,0.63-49.85
			c0.63-9.22,1.29-18.43,2.09-27.63c1.15-13.32,2.93-26.57,4.94-39.79c2.82-18.61,6.31-37.09,10.73-55.38
			C254.86,205.33,254.96,204.59,255.1,203.86z M256.45,257.98c0,7.91,0.78,13.15,2.14,18.3c2.67,10.06,7.63,18.7,15.75,25.4
			c12.81,10.57,27.86,11.53,41.29,4.47c6.83-3.59,12.04-8.99,15.98-15.53c9.14-15.2,10.64-31.34,5.27-48.13
			c-3.32-10.36-9.32-18.88-18.44-24.97c-8.08-5.39-16.97-7.4-26.59-5.64c-9.35,1.71-16.95,6.53-22.93,13.75
			C260.56,235.7,256.65,247.49,256.45,257.98z M103.42,721.35c0.08,0,0.16,0.01,0.24,0.01c0.48-4.09,0.94-8.19,1.43-12.28
			c1.74-14.65,3.44-29.3,5.26-43.93c1.34-10.81,2.64-21.62,4.33-32.38c2.23-14.23,4.68-28.42,7.3-42.58
			c3.14-16.95,7.29-33.68,12.45-50.13c7.49-23.87,16.71-47.04,28.95-68.9c7.01-12.51,14.42-24.8,21.61-37.21
			c4.33-7.47,9.02-14.68,14.55-21.34c0.71-0.85,1.22-2.05,1.36-3.15c0.68-5.26,1.19-10.55,1.79-15.82
			c0.76-6.71,1.55-13.42,2.31-20.13c0.59-5.2,1.18-10.41,1.74-15.62c0.07-0.68,0.32-1.42-0.27-2.31c-0.41,0.83-0.73,1.43-1.02,2.04
			c-20.81,45.14-41.29,90.42-60.18,136.41c-9.92,24.15-18.8,48.58-24.75,74.03c-3.31,14.17-6.37,28.38-8.53,42.77
			c-1.37,9.06-2.64,18.14-3.73,27.24c-1.09,9.17-1.99,18.36-2.8,27.56c-0.6,6.8-0.93,13.62-1.36,20.43
			c-0.71,11.16-0.9,22.33-0.8,33.51C103.3,720.17,103.37,720.76,103.42,721.35z M324.39,443.55c-3.83-35-7.63-69.7-11.41-104.25
			c0.34-0.26,0.44-0.37,0.56-0.43c0.31-0.14,0.64-0.26,0.96-0.37c12.19-4.02,23.08-10.39,33.19-18.22
			c6.44-4.99,11.44-11.12,15.1-18.39c3.96-7.84,6.96-16.05,9.49-24.45c0.12-0.4,0.17-0.82,0.25-1.23c-0.66,0.63-1.02,1.36-1.37,2.09
			c-1.98,4.1-3.76,8.3-5.96,12.27c-12.5,22.54-33.25,37.16-58.67,41.52c-1.19,0.2-2.37,0.46-3.51,0.69
			c-0.03,0.44-0.07,0.65-0.05,0.85c0.5,6.11,1.02,12.23,1.52,18.34c0.97,11.82,1.93,23.63,2.91,35.45
			c0.78,9.41,1.59,18.82,2.36,28.23c0.63,7.7,1.21,15.39,1.83,23.09c0.11,1.41,0.31,2.82,0.47,4.29
			C316.21,443.37,320.17,443.5,324.39,443.55z M239.69,637.52c19.14-5.18,37.92-10.26,56.77-15.36c-0.57-5.61-1.12-10.98-1.68-16.5
			c-19.03,4.55-37.76,9.02-56.59,13.51C238.7,625.33,239.18,631.29,239.69,637.52z M313.15,504.16c0.55,13.46,1.23,26.58,2.39,39.77
			c0.77,0,1.31,0.02,1.85,0c2.55-0.12,5.09-0.3,7.64-0.37c13.48-0.35,26.87,0.47,40.08,3.34c10.14,2.2,20.04,5.1,29.04,10.48
			c0.25,0.15,0.59,0.16,0.88,0.23c-2.5-2.47-5.11-4.7-7.87-6.74c-7.1-5.26-14.75-9.41-23.46-11.36c-7.35-1.64-14.82-2.44-22.32-2.87
			c-4.27-0.25-8.55-0.25-12.82-0.38c-0.67-0.02-1.33-0.11-2.07-0.17c0.74-10.94,1.95-21.66,2.57-32.51
			C323.67,503.76,318.59,503.95,313.15,504.16z M319.19,456.56c-9.48,0.02-17.19,7.89-17.2,17.57c-0.01,9.77,7.75,17.64,17.36,17.62
			c9.48-0.02,17.22-7.92,17.23-17.57C336.6,464.45,328.79,456.54,319.19,456.56z M261.02,644.86c0.43,6.67,0.87,13.15,2.12,19.65
			c3.28-0.64,6.3-1.24,9.48-1.86c-0.26-7.69-0.51-15.23-0.77-23.09C268.1,641.39,264.67,643.07,261.02,644.86z"/>
		<path class="st0" d="M255.1,203.86c-0.14,0.73-0.24,1.47-0.41,2.19c-4.42,18.3-7.91,36.77-10.73,55.38
			c-2.01,13.22-3.79,26.47-4.94,39.79c-0.79,9.2-1.46,18.42-2.09,27.63c-1.13,16.6-1.17,33.23-0.63,49.85
			c0.45,13.78,1.58,27.52,3.47,41.2c1.24,9.01,2.27,18.05,3.49,27.06c1.21,8.94,2.5,17.88,3.84,26.81
			c1.4,9.34,2.83,18.67,4.37,27.98c2.06,12.51,4.18,25.01,6.38,37.5c2.08,11.81,4.25,23.6,6.48,35.38
			c1.36,7.18,2.9,14.32,4.35,21.47c0.05,0.27,0.07,0.54,0.1,0.78c-1.32,0.86-43.28,14.32-45.74,14.66
			c-0.28-2.16-0.61-4.32-0.82-6.49c-0.63-6.66-1.25-13.31-1.82-19.98c-0.66-7.62-1.29-15.25-1.87-22.88
			c-0.27-3.51-0.4-7.02-0.58-10.53c-0.4-7.85-0.86-15.7-1.19-23.55c-1.1-26.62-1.18-53.25-0.72-79.87
			c0.19-10.89,0.73-21.78,1.24-32.67c0.44-9.3,1.01-18.59,1.62-27.88c0.79-12.04,1.56-24.08,2.53-36.11
			c0.95-11.82,2-23.63,3.26-35.41c1.44-13.43,2.95-26.86,5.69-40.1c3.63-17.5,8.2-34.75,14.59-51.45c2.58-6.75,5.92-13.2,8.93-19.78
			c0.19-0.41,0.51-0.75,0.77-1.13C254.82,203.77,254.96,203.82,255.1,203.86z"/>
		<path class="st0" d="M256.45,257.98c0.21-10.49,4.11-22.27,12.47-32.36c5.98-7.22,13.58-12.04,22.93-13.75
			c9.62-1.76,18.51,0.25,26.59,5.64c9.13,6.08,15.13,14.6,18.44,24.97c5.37,16.79,3.87,32.93-5.27,48.13
			c-3.94,6.55-9.15,11.94-15.98,15.53c-13.43,7.06-28.48,6.1-41.29-4.47c-8.12-6.7-13.08-15.34-15.75-25.4
			C257.22,271.12,256.45,265.89,256.45,257.98z M270.06,275.87c0.01,9.99,8.06,18.03,18.04,18c9.84-0.03,17.9-8.08,17.96-17.93
			c0.06-9.94-8.04-18.07-17.99-18.08C278.05,257.84,270.05,265.85,270.06,275.87z"/>
		<path class="st0" d="M103.42,721.35c-0.04-0.59-0.12-1.18-0.13-1.78c-0.1-11.18,0.08-22.35,0.8-33.51
			c0.44-6.81,0.76-13.63,1.36-20.43c0.81-9.2,1.71-18.39,2.8-27.56c1.09-9.1,2.36-18.18,3.73-27.24c2.17-14.39,5.23-28.6,8.53-42.77
			c5.95-25.45,14.83-49.88,24.75-74.03c18.89-46,39.37-91.28,60.18-136.41c0.28-0.61,0.6-1.21,1.02-2.04
			c0.59,0.9,0.35,1.64,0.27,2.31c-0.56,5.21-1.15,10.41-1.74,15.62c-0.77,6.71-1.55,13.42-2.31,20.13
			c-0.6,5.27-1.11,10.56-1.79,15.82c-0.14,1.1-0.65,2.3-1.36,3.15c-5.53,6.66-10.22,13.87-14.55,21.34
			c-7.19,12.41-14.6,24.7-21.61,37.21c-12.24,21.86-21.46,45.02-28.95,68.9c-5.16,16.46-9.31,33.18-12.45,50.13
			c-2.62,14.16-5.07,28.36-7.3,42.58c-1.69,10.75-2.99,21.57-4.33,32.38c-1.82,14.64-3.51,29.29-5.26,43.93
			c-0.49,4.09-0.95,8.19-1.43,12.28C103.58,721.36,103.5,721.35,103.42,721.35z"/>
		<path class="st0" d="M324.39,443.55c-4.22-0.06-8.18-0.18-12.33-0.51c-0.17-1.47-0.36-2.88-0.47-4.29
			c-0.62-7.7-1.2-15.4-1.83-23.09c-0.77-9.41-1.58-18.82-2.36-28.23c-0.98-11.82-1.94-23.63-2.91-35.45
			c-0.5-6.11-1.02-12.23-1.52-18.34c-0.02-0.2,0.02-0.4,0.05-0.85c1.14-0.22,2.32-0.48,3.51-0.69
			c25.43-4.36,46.17-18.98,58.67-41.52c2.2-3.97,3.98-8.17,5.96-12.27c0.35-0.73,0.71-1.46,1.37-2.09
			c-0.08,0.41-0.13,0.83-0.25,1.23c-2.53,8.4-5.54,16.6-9.49,24.45c-3.66,7.26-8.66,13.4-15.1,18.39
			c-10.11,7.83-21,14.19-33.19,18.22c-0.33,0.11-0.65,0.23-0.96,0.37c-0.12,0.05-0.22,0.16-0.56,0.43
			C316.76,373.85,320.55,408.55,324.39,443.55z"/>
		<path class="st0" d="M239.69,637.52c-0.51-6.24-1-12.19-1.5-18.35c18.83-4.5,37.56-8.97,56.59-13.51
			c0.56,5.52,1.11,10.89,1.68,16.5C277.61,627.26,258.83,632.34,239.69,637.52z"/>
		<path class="st0" d="M313.15,504.16c5.44-0.2,10.53-0.4,15.92-0.6c-0.63,10.85-1.83,21.57-2.57,32.51
			c0.73,0.06,1.4,0.15,2.07,0.17c4.27,0.13,8.55,0.14,12.82,0.38c7.5,0.43,14.97,1.23,22.32,2.87c8.71,1.95,16.37,6.1,23.46,11.36
			c2.75,2.04,5.37,4.27,7.87,6.74c-0.3-0.07-0.63-0.08-0.88-0.23c-9-5.38-18.9-8.27-29.04-10.48c-13.21-2.87-26.6-3.69-40.08-3.34
			c-2.55,0.07-5.09,0.25-7.64,0.37c-0.54,0.03-1.08,0-1.85,0C314.37,530.74,313.69,517.62,313.15,504.16z"/>
		<path class="st0" d="M319.19,456.56c9.6-0.02,17.41,7.89,17.4,17.62c-0.01,9.65-7.76,17.55-17.23,17.57
			c-9.62,0.02-17.38-7.85-17.36-17.62C302,464.45,309.72,456.57,319.19,456.56z M324.53,472.72c-3.66,0.02-6.55,2.9-6.58,6.57
			c-0.03,3.72,2.98,6.74,6.69,6.71c3.6-0.03,6.59-3.01,6.62-6.6C331.29,475.7,328.27,472.7,324.53,472.72z"/>
		<path class="st0" d="M261.02,644.86c3.65-1.79,7.08-3.47,10.83-5.3c0.26,7.87,0.51,15.4,0.77,23.09c-3.18,0.62-6.2,1.22-9.48,1.86
			C261.89,658,261.45,651.53,261.02,644.86z"/>
		<path d="M270.06,275.87c-0.01-10.02,8-18.03,18-18.01c9.96,0.01,18.05,8.14,17.99,18.08c-0.05,9.85-8.12,17.9-17.96,17.93
			C278.11,293.9,270.06,285.86,270.06,275.87z"/>
		<path d="M324.53,472.72c3.74-0.02,6.76,2.98,6.73,6.68c-0.03,3.59-3.02,6.57-6.62,6.6c-3.71,0.03-6.71-2.98-6.69-6.71
			C317.98,475.62,320.87,472.74,324.53,472.72z"/>
	</g>
</g>
</svg>
