<?xml version="1.0" encoding="utf-8"?>
<!-- Generator: Adobe Illustrator 24.1.2, SVG Export Plug-In . SVG Version: 6.00 Build 0)  -->
<svg version="1.1" id="Layer_1" xmlns="http://www.w3.org/2000/svg" xmlns:xlink="http://www.w3.org/1999/xlink" x="0px" y="0px"
	 viewBox="0 0 612 792" style="enable-background:new 0 0 612 792;" xml:space="preserve">
<style type="text/css">
	.st0{fill:#FFFFFF;}
</style>
<g>
	<g>
		<path class="st0" d="M-569-954c583,0,1166,0,1749,0c0,900.25,0,1800.5,0,2700.75c-583,0-1166,0-1749,0
			C-569,846.5-569-53.75-569-954z M1045.08,1656.91c0.24-2.65,0.48-4.12,0.5-5.59c0.37-25.49,1.31-50.98,0.95-76.46
			c-0.7-49.97-1.57-99.95-3.45-149.88c-1.42-37.69-4.18-75.34-6.96-112.96c-2.14-28.89-4.55-57.79-8.12-86.53
			c-4.58-36.91-10.25-73.7-15.77-110.49c-6.53-43.5-15.48-86.52-28.17-128.66c-31.19-103.57-67.14-205.51-107.65-305.78
			c-31.61-78.24-65.05-155.74-96.64-233.99c-39.73-98.39-78.16-197.3-120.92-294.44c-7.17-16.28-12.24-33.31-14.31-51.04
			c-1.79-15.38-2.58-30.87-4.46-46.23c-6.65-54.38-17.63-107.9-33.27-160.42c-23.38-78.54-55.35-153.58-93.66-225.88
			c-46.78-88.28-98.98-173.01-165.3-248.33c-2.64-3-4.52-7.32-5.23-11.29c-5.84-32.69-11.32-65.44-16.92-98.17
			c-7.12-41.59-14.26-83.18-21.43-124.76c-0.77-4.48-1.85-8.91-2.79-13.37c-1.57,1.68-2.2,3.28-2.49,4.94
			c-13.16,76.52-26.31,153.05-39.36,229.59c-1.04,6.12-3.46,11.22-7.5,15.96c-11.67,13.68-23.49,27.28-34.43,41.53
			C143.69-438.9,84.57-333.84,36.99-222.08C-5.99-121.12-33.76-16.41-41.79,93.29c-1.17,16.01-4.53,31.63-10.54,46.59
			c-5.12,12.74-10.22,25.49-15.52,38.16c-25.03,59.89-50.45,119.63-75.1,179.68c-23.79,57.97-45.82,116.68-70.37,174.32
			c-53.54,125.7-103.66,252.65-146.71,382.38c-27.14,81.77-47.5,165.05-58.73,250.44c-5.92,45.05-11.14,90.25-14.8,135.54
			c-4.17,51.53-6.89,103.21-9.09,154.87c-2.7,63.18-2.25,126.42-1.26,189.65c0.06,3.7,0.51,7.39,0.81,11.45c17.83,0,35.21,0,53.01,0
			c0.87-2.65,1.76-5.2,2.55-7.78c11.44-37.48,22.47-75.1,34.38-112.43c25.06-78.52,52.97-155.98,85.19-231.9
			c32.61-76.84,77.17-145.41,136.99-203.85c25.79-25.19,53.18-48.43,82.94-68.81c2.52-1.73,5.23-3.19,8.74-5.31
			c6.55,68.14,12.95,134.81,19.44,202.33c19.5-6.48,37.84-12.58,57.48-19.11c0.27,37.76,0.52,74.04,0.79,111.42
			c22.85-9.62,43.89-20.16,66.26-29.35c6.62,37.65,13.04,74.19,19.48,110.82c2.25,0.22,3.71,0.55,5.15,0.49
			c22.7-1.02,45.4-2.1,68.1-3.14c28.19-1.29,56.38-3.67,84.56-3.58c39.69,0.13,79.37,1.94,119.05,3.31
			c23.46,0.81,46.9,2.17,70.35,3.25c5.89,0.27,6.28-0.07,7.29-5.82c4.04-23.12,8.04-46.24,12.08-69.36
			c2.06-11.75,4.19-23.49,6.49-36.32c22.38,10.06,44.05,19.8,66.57,29.92c0-13.52,0-25.73,0-37.95c0-12.25-0.02-24.49,0-36.74
			c0.02-12.09-0.09-24.18,0.09-37.11c19.79,6.55,38.35,12.69,57.73,19.09c6.54-67.76,12.97-134.46,19.55-202.62
			c4.77,3.11,8.33,5.26,11.71,7.68c85.3,60.94,152.98,137,198.94,231.78c26.08,53.78,47.27,109.54,67.56,165.67
			c25.98,71.87,48.62,144.82,70.13,218.13c0.82,2.8,1.81,5.56,2.56,7.83C1010.07,1656.91,1027.24,1656.91,1045.08,1656.91z"/>
		<path d="M1045.08,1656.91c-17.84,0-35,0-53.03,0c-0.75-2.27-1.73-5.03-2.56-7.83c-21.51-73.31-44.15-146.26-70.13-218.13
			c-20.29-56.13-41.49-111.89-67.56-165.67c-45.95-94.77-113.64-170.84-198.94-231.78c-3.38-2.41-6.94-4.56-11.71-7.68
			c-6.58,68.16-13.01,134.85-19.55,202.62c-19.38-6.41-37.94-12.55-57.73-19.09c-0.17,12.93-0.07,25.02-0.09,37.11
			c-0.02,12.25,0,24.49,0,36.74c0,12.22,0,24.43,0,37.95c-22.51-10.12-44.19-19.86-66.57-29.92c-2.29,12.83-4.43,24.57-6.49,36.32
			c-4.05,23.12-8.04,46.24-12.08,69.36c-1,5.74-1.4,6.09-7.29,5.82c-23.45-1.08-46.89-2.44-70.35-3.25
			c-39.68-1.37-79.36-3.19-119.05-3.31c-28.18-0.09-56.38,2.29-84.56,3.58c-22.7,1.04-45.4,2.12-68.1,3.14
			c-1.44,0.06-2.9-0.26-5.15-0.49c-6.44-36.63-12.86-73.17-19.48-110.82c-22.37,9.2-43.4,19.73-66.26,29.35
			c-0.26-37.38-0.52-73.66-0.79-111.42c-19.64,6.53-37.98,12.63-57.48,19.11c-6.49-67.53-12.89-134.2-19.44-202.33
			c-3.51,2.12-6.22,3.58-8.74,5.31c-29.76,20.38-57.15,43.61-82.94,68.81c-59.82,58.44-104.37,127.01-136.99,203.85
			c-32.22,75.92-60.13,153.38-85.19,231.9c-11.92,37.33-22.94,74.95-34.38,112.43c-0.79,2.58-1.68,5.13-2.55,7.78
			c-17.8,0-35.18,0-53.01,0c-0.3-4.06-0.75-7.75-0.81-11.45c-0.99-63.23-1.44-126.47,1.26-189.65
			c2.21-51.66,4.92-103.34,9.09-154.87c3.67-45.28,8.88-90.48,14.8-135.54c11.23-85.39,31.59-168.67,58.73-250.44
			c43.06-129.73,93.18-256.68,146.71-382.38c24.55-57.64,46.58-116.35,70.37-174.32c24.65-60.05,50.07-119.78,75.1-179.68
			c5.29-12.67,10.4-25.42,15.52-38.16c6-14.96,9.36-30.58,10.54-46.59c8.04-109.69,35.81-214.4,78.79-315.37
			C84.57-333.84,143.69-438.9,217.7-535.35c10.94-14.26,22.76-27.85,34.43-41.53c4.04-4.74,6.46-9.84,7.5-15.96
			c13.05-76.54,26.2-153.07,39.36-229.59c0.29-1.66,0.91-3.27,2.49-4.94c0.94,4.45,2.01,8.88,2.79,13.37
			c7.17,41.58,14.31,83.17,21.43,124.76c5.61,32.73,11.08,65.48,16.92,98.17c0.71,3.98,2.59,8.29,5.23,11.29
			c66.31,75.32,118.52,160.06,165.3,248.33c38.32,72.31,70.28,147.34,93.66,225.88c15.64,52.52,26.62,106.04,33.27,160.42
			c1.88,15.36,2.67,30.86,4.46,46.23c2.06,17.73,7.14,34.76,14.31,51.04c42.77,97.14,81.19,196.05,120.92,294.44
			c31.6,78.24,65.04,155.74,96.64,233.99c40.51,100.27,76.46,202.21,107.65,305.78c12.69,42.14,21.64,85.16,28.17,128.66
			c5.52,36.79,11.19,73.58,15.77,110.49c3.56,28.74,5.98,57.64,8.12,86.53c2.79,37.62,5.55,75.27,6.96,112.96
			c1.88,49.93,2.74,99.91,3.45,149.88c0.36,25.48-0.57,50.97-0.95,76.46C1045.55,1652.79,1045.32,1654.26,1045.08,1656.91z
			 M172.47,1123.59c-0.19-1.98-0.19-3.45-0.48-4.85c-5.7-28.38-11.75-56.7-17.09-85.15c-8.57-45.62-16.88-91.29-24.94-137
			c-6.98-39.57-13.62-79.2-20.11-118.85c-5.52-33.74-10.77-67.53-15.82-101.34c-4.95-33.08-9.65-66.19-14.17-99.33
			c-3.85-28.19-7.03-56.48-10.97-84.66c-5.95-42.56-10.31-85.28-12.51-128.17c-1.56-30.43-2.23-60.93-2.48-91.41
			c-0.47-55.98,1.62-111.9,6.23-167.71c2.14-25.88,3.92-51.8,6.81-77.6c3.9-34.72,8.2-69.41,13.29-103.98
			c5.09-34.56,10.69-69.07,17.29-103.37c7.6-39.45,16.55-78.63,24.88-117.94c0.26-1.23,0.18-2.52,0.25-3.79
			c-0.49-0.17-0.97-0.34-1.46-0.52c-1.36,2.53-2.76,5.05-4.07,7.6c-24.57,47.68-42.73,97.75-57.51,149.28
			C40.75-79.53,26.41-13.05,18.74,54.84c-3.31,29.27-6.73,58.53-9.55,87.85c-3.29,34.29-6.04,68.64-8.88,102.98
			c-1.26,15.18-2.16,30.39-3.21,45.58C-5.18,324.12-7.6,357-9.71,389.89c-1.44,22.43-2.58,44.89-3.58,67.34
			c-1.9,42.67-4.4,85.34-5.19,128.04c-1.52,81.71-1.5,163.43,1.18,245.12c1.11,33.7,2.69,67.39,4.24,101.08
			c1,21.71,2.07,43.42,3.62,65.09c1.98,27.64,4.39,55.25,6.77,82.87c2.07,24.13,4.28,48.25,6.58,72.36
			c0.75,7.87,1.98,15.68,3.11,24.46C62.65,1158.55,117.45,1141.1,172.47,1123.59z M282.47,85.59c8.58,0.11,21.59-1.95,34.34-5.77
			c33.52-10.05,59.06-30.87,78.38-59.41c34.47-50.93,42.59-106.8,28.54-166.03c-9.31-39.24-28.65-72.87-60.61-98.22
			c-34.81-27.61-74.07-37.53-117.4-25.96c-36.86,9.84-64.98,32.45-85.26,64.36c-32.08,50.48-40.22,105.02-25.72,163.03
			c9.33,37.36,26.94,69.72,56.89,94.59C216.57,72.88,244.7,85.57,282.47,85.59z M-51.59,249.61c-0.67-0.14-1.35-0.29-2.02-0.43
			c-1.09,2.19-2.24,4.36-3.26,6.59c-6.67,14.52-13.33,29.04-19.96,43.57C-133.77,424-191.73,548.2-243.37,675.21
			c-22.47,55.26-46.5,109.92-67.54,165.72c-44.93,119.17-71.96,242.93-90.07,368.72c-5.61,39.01-10.03,78.23-13.8,117.47
			c-4.06,42.24-7.54,84.56-9.73,126.93c-1.9,36.65-1.66,73.42-2.35,110.14c-0.06,2.94-0.01,5.88-0.01,8.82
			c1.27-0.55,1.49-1,1.54-1.47c3.67-31.23,7.27-62.47,10.99-93.7c4.76-39.9,9.45-79.8,14.49-119.67
			c4.47-35.41,8.75-70.85,14.23-106.11c7.2-46.35,15-92.62,23.43-138.76c12.44-68.05,28.56-135.25,49.47-201.24
			c26.07-82.3,57.72-162.34,99.56-237.96c26.23-47.4,54.34-93.76,81.44-140.68c15.89-27.52,33.11-54.09,53.44-78.59
			c2.55-3.08,4.45-7.42,4.93-11.39c3.9-32.46,7.35-64.98,11.02-97.47c2.72-24.06,5.58-48.09,8.32-72.15
			C-53.09,265.78-52.39,257.69-51.59,249.61z M373.92,567.12c-13.88-126.88-27.63-252.55-41.39-378.27
			c2.35-1.01,3.88-1.81,5.49-2.35c44.15-14.52,83.58-37.6,120.19-65.92c23.13-17.9,41.17-39.86,54.39-65.89
			c14.63-28.81,25.73-59,34.92-89.92c0.36-1.22,0.5-2.5,0.74-3.75c-0.49-0.23-0.98-0.46-1.46-0.69
			c-21.71,53.21-49.82,102.08-95.51,138.34c-45.41,36.04-96.15,60.39-154.65,66.49c-0.13,2.03-0.35,3.24-0.25,4.42
			c2.3,28.12,4.64,56.23,6.95,84.35c3.01,36.58,5.98,73.16,9.01,109.73c2.83,34.09,5.77,68.16,8.56,102.25
			c2.28,27.87,4.38,55.76,6.62,83.63c0.41,5.14,1.11,10.25,1.71,15.78C344.26,565.94,358.63,566.51,373.92,567.12z M67.15,1269.43
			c69.24-18.73,137.21-37.12,205.6-55.62c-2.04-20.15-4-39.6-6.04-59.77c-68.76,16.42-136.55,32.6-204.98,48.94
			C63.53,1225.01,65.29,1246.56,67.15,1269.43z M629.28,980.29c0.27-0.43,0.54-0.86,0.81-1.29c-2.6-2.25-5.21-4.48-7.79-6.75
			c-41.05-36.07-87.85-58.99-142.9-64.32c-29.35-2.84-58.67-5.04-88.14-5.28c-3.17-0.03-6.33-0.21-9.75-0.34
			c2.74-39.8,7.05-78.63,9.36-118.11c-19.54,0.77-38.15,1.5-57.62,2.26c1.86,48.66,4.35,96.35,8.67,144.12
			c11.79-0.49,22.48-1.03,33.17-1.37c54.39-1.75,108.24,2.35,161.22,15.37c31.35,7.7,61.91,17.55,89.8,34.34
			C627.09,979.51,628.22,979.84,629.28,980.29z M292.78,677.83c0.04,35.39,28.2,63.77,63.07,63.61
			c31.92-0.15,61.88-25.47,62.14-63.79c0.24-35.37-28.34-63.82-63.09-63.63C320.59,614.21,292.74,642.81,292.78,677.83z
			 M183.63,1276.75c-13.77,6.76-26.24,12.89-38.5,18.91c-1.34,14.34,4.45,64.71,8.2,71.24c10.83-2.12,21.75-4.26,33.07-6.47
			C185.48,1332.52,184.58,1305.39,183.63,1276.75z"/>
		<path class="st0" d="M172.47,1123.59c-55.02,17.51-109.82,34.96-165.45,52.66c-1.13-8.78-2.36-16.6-3.11-24.46
			c-2.3-24.11-4.5-48.23-6.58-72.36c-2.37-27.61-4.79-55.22-6.77-82.87c-1.55-21.67-2.62-43.38-3.62-65.09
			c-1.56-33.69-3.14-67.38-4.24-101.08c-2.68-81.69-2.7-163.42-1.18-245.12c0.8-42.7,3.3-85.37,5.19-128.04
			c1-22.46,2.15-44.91,3.58-67.34c2.1-32.89,4.53-65.77,6.81-98.65c1.06-15.2,1.96-30.4,3.21-45.58
			c2.84-34.34,5.59-68.68,8.88-102.98c2.81-29.32,6.24-58.58,9.55-87.85c7.67-67.88,22.01-134.36,40.85-200.01
			c14.79-51.53,32.95-101.6,57.51-149.28c1.32-2.55,2.71-5.07,4.07-7.6c0.49,0.17,0.97,0.34,1.46,0.52
			c-0.08,1.26,0.01,2.56-0.25,3.79c-8.33,39.3-17.28,78.49-24.88,117.94c-6.6,34.3-12.2,68.81-17.29,103.37
			C75.13-41.89,70.83-7.19,66.93,27.53c-2.9,25.8-4.68,51.72-6.81,77.6c-4.61,55.81-6.7,111.72-6.23,167.71
			c0.26,30.48,0.92,60.97,2.48,91.41c2.2,42.89,6.56,85.61,12.51,128.17c3.94,28.18,7.12,56.46,10.97,84.66
			c4.52,33.14,9.23,66.25,14.17,99.33c5.06,33.81,10.31,67.6,15.82,101.34c6.48,39.65,13.13,79.28,20.11,118.85
			c8.06,45.71,16.37,91.38,24.94,137c5.35,28.45,11.39,56.76,17.09,85.15C172.27,1120.14,172.28,1121.61,172.47,1123.59z"/>
		<path class="st0" d="M282.47,85.59c-37.76-0.01-65.9-12.71-90.84-33.42c-29.95-24.87-47.56-57.23-56.89-94.59
			c-14.5-58.02-6.36-112.56,25.72-163.03c20.28-31.91,48.39-54.53,85.26-64.36c43.33-11.56,82.58-1.64,117.4,25.96
			c31.96,25.35,51.3,58.98,60.61,98.22c14.05,59.23,5.93,115.1-28.54,166.03c-19.32,28.54-44.86,49.37-78.38,59.41
			C304.05,83.63,291.05,85.69,282.47,85.59z M177.13-40.56c-0.04,36.2,29.09,65.48,65.12,65.45c35.87-0.03,65.39-29.7,65.23-65.57
			c-0.16-35.76-29.19-64.74-64.97-64.86C206.16-105.65,177.17-76.85,177.13-40.56z"/>
		<path class="st0" d="M-51.59,249.61c-0.8,8.08-1.5,16.17-2.42,24.23c-2.73,24.05-5.6,48.09-8.32,72.15
			c-3.67,32.49-7.12,65.01-11.02,97.47c-0.48,3.96-2.38,8.31-4.93,11.39c-20.34,24.5-37.55,51.07-53.44,78.59
			c-27.1,46.92-55.21,93.28-81.44,140.68c-41.84,75.62-73.49,155.66-99.56,237.96c-20.91,65.99-37.03,133.19-49.47,201.24
			c-8.43,46.14-16.23,92.41-23.43,138.76c-5.48,35.26-9.76,70.7-14.23,106.11c-5.03,39.86-9.73,79.77-14.49,119.67
			c-3.73,31.23-7.33,62.47-10.99,93.7c-0.06,0.47-0.27,0.93-1.54,1.47c0-2.94-0.05-5.88,0.01-8.82
			c0.69-36.72,0.45-73.48,2.35-110.14c2.2-42.37,5.67-84.7,9.73-126.93c3.77-39.24,8.19-78.46,13.8-117.47
			c18.1-125.79,45.14-249.55,90.07-368.72c21.04-55.8,45.07-110.46,67.54-165.72C-191.73,548.2-133.77,424-76.84,299.34
			c6.64-14.53,13.29-29.06,19.96-43.57c1.02-2.23,2.17-4.39,3.26-6.59C-52.94,249.32-52.26,249.47-51.59,249.61z"/>
		<path class="st0" d="M373.92,567.12c-15.29-0.61-29.65-1.19-44.67-1.79c-0.61-5.53-1.3-10.65-1.71-15.78
			c-2.24-27.87-4.34-55.76-6.62-83.63c-2.79-34.09-5.73-68.17-8.56-102.25c-3.03-36.58-6-73.16-9.01-109.73
			c-2.31-28.12-4.65-56.23-6.95-84.35c-0.1-1.18,0.13-2.39,0.25-4.42c58.5-6.1,109.24-30.46,154.65-66.49
			c45.69-36.26,73.8-85.13,95.51-138.34c0.49,0.23,0.98,0.46,1.46,0.69c-0.24,1.25-0.38,2.53-0.74,3.75
			c-9.2,30.92-20.29,61.1-34.92,89.92c-13.22,26.03-31.26,47.99-54.39,65.89c-36.61,28.33-76.04,51.4-120.19,65.92
			c-1.62,0.53-3.15,1.34-5.49,2.35C346.28,314.57,360.03,440.24,373.92,567.12z"/>
		<path class="st0" d="M67.15,1269.43c-1.86-22.88-3.62-44.42-5.41-66.45c68.42-16.34,136.22-32.52,204.98-48.94
			c2.04,20.16,4,39.62,6.04,59.77C204.36,1232.31,136.39,1250.7,67.15,1269.43z"/>
		<path class="st0" d="M629.28,980.29c-1.06-0.45-2.2-0.78-3.17-1.37c-27.89-16.8-58.46-26.64-89.8-34.34
			c-52.98-13.02-106.83-17.12-161.22-15.37c-10.69,0.34-21.37,0.88-33.17,1.37c-4.32-47.77-6.81-95.46-8.67-144.12
			c19.47-0.76,38.08-1.49,57.62-2.26c-2.31,39.48-6.62,78.31-9.36,118.11c3.42,0.12,6.58,0.31,9.75,0.34
			c29.47,0.24,58.8,2.44,88.14,5.28c55.05,5.32,101.85,28.25,142.9,64.32c2.58,2.27,5.19,4.5,7.79,6.75
			C629.82,979.43,629.55,979.86,629.28,980.29z"/>
		<path class="st0" d="M292.78,677.83c-0.04-35.03,27.8-63.63,62.13-63.81c34.74-0.19,63.33,28.26,63.09,63.63
			c-0.26,38.32-30.22,63.63-62.14,63.79C320.99,741.61,292.82,713.22,292.78,677.83z M374.88,672.57
			c-13.62-0.14-24.35,10.5-24.29,24.09c0.06,13.12,10.71,23.92,23.76,24.08c13.19,0.17,24.53-11.09,24.45-24.29
			C398.72,683.37,388.03,672.7,374.88,672.57z"/>
		<path class="st0" d="M183.63,1276.75c0.95,28.64,1.85,55.77,2.77,83.68c-11.32,2.22-22.24,4.35-33.07,6.47
			c-3.75-6.53-9.54-56.91-8.2-71.24C157.39,1289.64,169.86,1283.51,183.63,1276.75z"/>
		<path d="M177.13-40.56c0.04-36.29,29.03-65.1,65.38-64.98c35.78,0.12,64.81,29.1,64.97,64.86c0.16,35.87-29.37,65.54-65.23,65.57
			C206.22,24.92,177.09-4.36,177.13-40.56z"/>
		<path d="M374.88,672.57c13.15,0.13,23.84,10.8,23.92,23.88c0.08,13.2-11.26,24.46-24.45,24.29c-13.05-0.17-23.7-10.96-23.76-24.08
			C350.53,683.07,361.26,672.44,374.88,672.57z"/>
	</g>
</g>
</svg>
